<?xml version="1.0" standalone="no"?><!DOCTYPE svg PUBLIC "-//W3C//DTD SVG 1.1//EN" "http://www.w3.org/Graphics/SVG/1.1/DTD/svg11.dtd"><svg t="1584449748943" class="icon" viewBox="0 0 1024 1024" version="1.1" xmlns="http://www.w3.org/2000/svg" p-id="827" width="16" height="16" xmlns:xlink="http://www.w3.org/1999/xlink"><defs><style type="text/css"></style></defs><path d="M743.858672 902.181537c-5.439896 0-10.912537-1.301645-15.884782-3.921309L512 784.733615 296.025087 898.260228c-11.412934 6.040576-25.39539 5.03876-35.973306-2.603291-10.511401-7.642051-15.784498-20.606317-13.582343-33.420157l41.246403-240.46877L112.987331 451.444832c-9.31004-9.076726-12.647041-22.659069-8.642844-35.022655 4.037966-12.363585 14.716166-21.390169 27.597545-23.25975l241.436818-35.072797 107.987457-218.777749c11.479449-23.326265 49.788963-23.326265 61.268412 0l107.987457 218.777749 241.436818 35.072797c12.881378 1.868557 23.559579 10.895141 27.597545 23.25975 4.004197 12.363585 0.667196 25.945929-8.642844 35.022655L736.284159 621.768009l41.246403 240.46877c2.202155 12.81384-3.069919 25.77913-13.582343 33.420157C758.007927 899.979382 750.933811 902.181537 743.858672 902.181537zM512 711.951985c5.472642 0 10.912537 1.301645 15.884782 3.921309l170.59026 89.667206-32.56979-189.9287c-1.902326-11.079336 1.768273-22.391986 9.81146-30.233582l137.987724-134.534066L623.023606 423.146323c-11.145851-1.61887-20.756743-8.610098-25.728988-18.703991L512 231.648894l-85.295642 172.793438c-4.972245 10.094916-14.583137 17.086144-25.728988 18.703991l-190.679807 27.697829 137.987724 134.534066c8.042163 7.841595 11.712763 19.154245 9.81146 30.233582l-32.56979 189.9287 170.59026-89.667206C501.087463 713.25363 506.527358 711.951985 512 711.951985z" p-id="828" fill="#2c2c2c"></path></svg>