<?xml version="1.0" standalone="no"?><!DOCTYPE svg PUBLIC "-//W3C//DTD SVG 1.1//EN" "http://www.w3.org/Graphics/SVG/1.1/DTD/svg11.dtd"><svg t="1586655472231" class="icon" viewBox="0 0 1024 1024" version="1.1" xmlns="http://www.w3.org/2000/svg" p-id="4370" xmlns:xlink="http://www.w3.org/1999/xlink" width="32" height="32"><defs><style type="text/css"></style></defs><path d="M804.278251 366.310873C772.191462 232.109382 654.800845 128.745223 511.889995 128.745223c-146.853649 0-267.617084 100.472296-292.387233 237.564627-37.155225 7.102768-54.822606 26.340925-54.822606 54.82363l0 127.919415c0 31.94455 23.806195 54.822606 54.822606 54.822606 17.489326 0 44.543496-5.336542 54.822606-18.274202 24.841781 66.957994 110.144586 149.298328 129.079844 151.60179 9.44 1.14201 14.971993 1.659803 8.636704-6.139837-9.369392-11.510148-68.296479-68.992327-79.860862-149.601226-5.104251-35.479049 20.986987-70.313416 51.324946-76.060303 48.755424-9.244548 97.224322-19.791765 145.978722-28.874631 30.980595-5.746888 52.146661-23.074531 65.10274-51.931766 3.034103-6.745634 6.674003-20.344351 8.673543-40.011272 1.784646-9.779737 11.100826-3.158946 11.491729-2.641153 0 0 69.563332 23.735587 79.879282 148.835793 6.282077 75.879178-62.247716 177.280636-69.956282 189.113125 0.483001-0.731664 0.090051 10.243295 6.567579 6.638187 57.625442-32.354895 101.830223-86.408999 122.263601-151.422711 8.262174 12.528338 21.218254 21.556968 36.245506 24.698518C765.642303 711.648063 667.792741 781.639137 546.548352 792.275381c-7.263427-18.381649-25.14468-31.426757-46.150086-31.426757-27.447119 0-49.682539 22.164812-49.682539 49.442062 0 27.304879 22.23542 49.433876 49.682539 49.433876 22.110577 0 40.635489-14.491039 47.078225-34.407648 140.321886-11.599176 252.823146-96.661504 276.308023-228.77545 20.754696-8.834202 35.31839-23.269983 35.31839-47.487547L859.102904 421.13348C859.101881 374.126886 804.492122 367.167381 804.278251 366.310873zM731.182466 402.859277c-36.602639-101.079116-107.71935-164.467819-219.292472-164.467819-111.10854 0-200.623273 64.048735-237.564627 164.467819-1.837858-2.284019-16.168238-16.275685-18.274202-18.274202 20.914332-122.370025 131.274836-201.016223 255.838829-201.016223 123.95922 0 215.971843 79.503728 237.56565 201.016223C741.765499 395.113873 731.182466 402.859277 731.182466 402.859277z" p-id="4371" fill="#707070" data-spm-anchor-id="a313x.7781069.0.i2" class=""></path></svg>