<?xml version="1.0" standalone="no"?><!DOCTYPE svg PUBLIC "-//W3C//DTD SVG 1.1//EN" "http://www.w3.org/Graphics/SVG/1.1/DTD/svg11.dtd"><svg t="1584332463874" class="icon" viewBox="0 0 1026 1024" version="1.1" xmlns="http://www.w3.org/2000/svg" p-id="5091" width="200.390625" height="200" xmlns:xlink="http://www.w3.org/1999/xlink"><defs><style type="text/css"></style></defs><path d="M931.571183 1023.943658 641.471385 1023.943658c-51.60138 0-93.398472-65.628416-93.398472-117.229796L548.072913 641.506393c0-51.572603 41.797092-93.403477 93.398472-93.403477l290.098547 0c51.537569 0 93.398472 41.832125 93.398472 93.403477l0 289.038793C1024.969655 982.146566 983.108752 1023.943658 931.571183 1023.943658L931.571183 1023.943658zM976.990457 644.869579c0-26.32869-21.362736-47.662649-47.662649-47.662649L643.393205 597.206931c-26.294908 0-47.662649 21.333959-47.662649 47.662649l0 285.934603c0 26.294908 21.367741 47.657644 47.662649 47.657644l285.934603 0c26.299913 0 47.662649-21.362736 47.662649-47.657644L976.990457 644.869579 976.990457 644.869579zM931.571183 475.904526 641.471385 475.904526c-51.60138 0-93.398472-65.657194-93.398472-117.258574L548.072913 93.43348c0-51.567598 41.797092-93.433505 93.398472-93.433505l290.098547 0c51.537569 0 93.398472 41.865907 93.398472 93.433505l0 289.043798C1024.969655 434.073652 983.108752 475.904526 931.571183 475.904526L931.571183 475.904526zM976.990457 96.795414c0-26.298662-21.362736-47.661398-47.662649-47.661398L643.393205 49.134018c-26.294908 0-47.662649 21.362736-47.662649 47.661398l0 285.935854c0 26.32869 21.367741 47.661398 47.662649 47.661398l285.934603 0c26.299913 0 47.662649-21.332708 47.662649-47.661398L976.990457 96.795414 976.990457 96.795414zM383.49827 1023.943658 93.433505 1023.943658C41.797092 1023.943658 0 958.315242 0 906.713862L0 641.506393c0-51.572603 41.797092-93.403477 93.433505-93.403477l290.064764 0c51.572603 0 93.433505 41.832125 93.433505 93.403477l0 289.038793C476.901746 982.146566 435.070872 1023.943658 383.49827 1023.943658L383.49827 1023.943658zM428.917544 644.869579c0-26.32869-21.328954-47.662649-47.657644-47.662649L95.325297 597.206931c-26.299913 0-47.662649 21.333959-47.662649 47.662649l0 285.934603c0 26.294908 21.362736 47.657644 47.662649 47.657644l285.934603 0c26.32869 0 47.657644-21.362736 47.657644-47.657644L428.917544 644.869579 428.917544 644.869579zM383.49827 475.904526 93.433505 475.904526C41.797092 475.904526 0 410.247332 0 358.645953L0 93.43348c0-51.567598 41.797092-93.433505 93.433505-93.433505l290.064764 0c51.572603 0 93.433505 41.832125 93.433505 93.433505l0 289.043798C476.901746 434.073652 435.070872 475.904526 383.49827 475.904526L383.49827 475.904526zM428.917544 96.795414c0-26.298662-21.328954-47.661398-47.657644-47.661398L95.325297 49.134018c-26.299913 0-47.662649 21.362736-47.662649 47.661398l0 285.935854c0 26.32869 21.362736 47.661398 47.662649 47.661398l285.934603 0c26.32869 0 47.657644-21.332708 47.657644-47.661398L428.917544 96.795414 428.917544 96.795414zM428.917544 96.795414" p-id="5092" fill="#d4237a"></path></svg>